<svg width="249" height="262" viewBox="0 0 249 262" fill="none" xmlns="http://www.w3.org/2000/svg">
<rect x="39" y="64" width="103" height="154" fill="white"/>
<path fill-rule="evenodd" clip-rule="evenodd" d="M95.4634 84H68.4913L73 206.111H52L43.8844 84H18L26 262H180L191 84H115V129.4H99L95.4634 84Z" fill="#E7B657"/>
<path fill-rule="evenodd" clip-rule="evenodd" d="M52 206.111L43.8844 84H18L26 262H180L191 84H115V129.4H99L95.4634 84H68.4913L73 206.111H52ZM75.7546 91L80.2632 213.111H45.4498L37.3342 91H25.3217L32.6925 255H173.419L183.554 91H122V136.4H92.5241L88.9875 91H75.7546Z" fill="black"/>
<path fill-rule="evenodd" clip-rule="evenodd" d="M121.164 7.70914C116.963 2.93397 111.264 0 104.988 0C96.4431 0 88.9687 5.43791 84.8883 13.5564C83.9738 13.4274 83.0432 13.3611 82.0995 13.3611C77.9825 13.3611 74.114 14.6235 70.7539 16.8398C66.8933 14.6235 62.4486 13.3611 57.7184 13.3611C45.2829 13.3611 34.8205 22.0861 31.7573 33.9322C31.4559 33.9219 31.1533 33.9167 30.8495 33.9167C16.0102 33.9167 3.98058 46.3408 3.98058 61.6667C3.98058 64.5011 4.39205 67.2363 5.15665 69.812C1.87093 73.7934 0 78.3749 0 83.25C0 98.5759 18.49 111 41.2985 111C55.6642 111 68.3168 106.071 75.7154 98.5934C79.3004 101.246 83.5346 102.778 88.0704 102.778C91.243 102.778 94.2681 102.028 97.0267 100.67C99.7853 102.028 102.81 102.778 105.983 102.778C113.173 102.778 119.606 98.9272 123.896 92.869C128.186 98.9272 134.618 102.778 141.808 102.778C150.218 102.778 157.59 97.511 161.711 89.6056C165.832 97.511 173.205 102.778 181.614 102.778C194.53 102.778 205 90.3537 205 75.0278C205 67.2999 202.338 60.3098 198.043 55.2784C198.684 52.745 199.029 50.0592 199.029 47.2778C199.029 31.9519 188.559 19.5278 175.643 19.5278C170.198 19.5278 165.188 21.7358 161.214 25.4385C157.767 22.228 153.542 20.1411 148.931 19.6431C144.841 11.5689 137.388 6.16667 128.871 6.16667C126.171 6.16667 123.577 6.70984 121.164 7.70914Z" fill="white"/>
<path fill-rule="evenodd" clip-rule="evenodd" d="M118.937 17.2899L115.157 12.993C112.251 9.68924 108.645 8 104.988 8C100.076 8 95.0553 11.1422 92.0363 17.149L89.4575 22.2798L83.7713 21.478C83.225 21.401 82.6676 21.3611 82.0995 21.3611C79.6639 21.3611 77.3113 22.0981 75.1588 23.5179L71.0448 26.2315L66.7708 23.7778C64.081 22.2336 61.0041 21.3611 57.7184 21.3611C49.1763 21.3611 41.716 27.3753 39.5025 35.935L37.8961 42.1474L31.4831 41.9275C31.2731 41.9203 31.0619 41.9167 30.8495 41.9167C20.6698 41.9167 11.9806 50.5138 11.9806 61.6667C11.9806 63.7238 12.2788 65.6924 12.8259 67.5353L14.0381 71.6188L11.3268 74.904C9.02285 77.6958 8 80.5264 8 83.25C8 87.4353 10.5228 92.1768 16.5579 96.232C22.5426 100.253 31.2661 103 41.2985 103C54.0437 103 64.4602 98.5948 70.0284 92.9668L74.9022 88.0407L80.4732 92.162C82.8045 93.8866 85.3949 94.7778 88.0704 94.7778C89.9595 94.7778 91.7804 94.3359 93.4929 93.4927L97.0267 91.7528L100.56 93.4927C102.273 94.3359 104.094 94.7778 105.983 94.7778C110.149 94.7778 114.31 92.5626 117.367 88.2458L123.896 79.0257L130.424 88.2458C133.481 92.5626 137.643 94.7778 141.808 94.7778C146.646 94.7778 151.579 91.7366 154.617 85.9076L161.711 72.2991L168.805 85.9076C171.844 91.7366 176.776 94.7778 181.614 94.7778C188.883 94.7778 197 87.2728 197 75.0278C197 69.1124 194.959 63.9876 191.958 60.4726L189.271 57.3253L190.287 53.3139C190.766 51.4237 191.029 49.3978 191.029 47.2778C191.029 35.0328 182.913 27.5278 175.643 27.5278C172.452 27.5278 169.338 28.8036 166.667 31.2919L161.214 36.3722L155.76 31.2919C153.438 29.1283 150.784 27.8897 148.072 27.5969L143.755 27.1308L141.794 23.2576C138.77 17.2878 133.768 14.1667 128.871 14.1667C127.259 14.1667 125.703 14.4884 124.224 15.1006L118.937 17.2899ZM166.875 96.574C170.898 100.453 176.027 102.778 181.614 102.778C194.53 102.778 205 90.3537 205 75.0278C205 67.2999 202.338 60.3098 198.043 55.2784C198.684 52.745 199.029 50.0592 199.029 47.2778C199.029 31.9519 188.559 19.5278 175.643 19.5278C170.198 19.5278 165.188 21.7358 161.214 25.4385C157.767 22.228 153.542 20.1411 148.931 19.6431C144.841 11.5689 137.388 6.16667 128.871 6.16667C126.171 6.16667 123.577 6.70984 121.164 7.70914C116.963 2.93397 111.264 0 104.988 0C96.4431 0 88.9687 5.43791 84.8883 13.5564C83.9738 13.4274 83.0432 13.3611 82.0995 13.3611C77.9825 13.3611 74.114 14.6235 70.7539 16.8398C66.8933 14.6235 62.4486 13.3611 57.7184 13.3611C45.2829 13.3611 34.8205 22.0861 31.7573 33.9322C31.4559 33.9219 31.1533 33.9167 30.8495 33.9167C16.0102 33.9167 3.98058 46.3408 3.98058 61.6667C3.98058 64.5011 4.39205 67.2363 5.15665 69.812C1.87093 73.7934 0 78.3749 0 83.25C0 98.5759 18.49 111 41.2985 111C55.6642 111 68.3168 106.071 75.7154 98.5934C79.3004 101.246 83.5346 102.778 88.0704 102.778C91.243 102.778 94.2681 102.028 97.0267 100.67C99.7853 102.028 102.81 102.778 105.983 102.778C110.476 102.778 114.673 101.274 118.237 98.6678C120.376 97.1033 122.286 95.1414 123.896 92.869C125.505 95.1414 127.415 97.1033 129.554 98.6678C133.118 101.274 137.315 102.778 141.808 102.778C147.395 102.778 152.525 100.453 156.547 96.574C158.579 94.6147 160.328 92.2587 161.711 89.6056C163.094 92.2587 164.844 94.6147 166.875 96.574Z" fill="black"/>
<path d="M152 157.5C152 163.299 147.299 168 141.5 168C135.701 168 131 163.299 131 157.5C131 151.701 135.701 147 141.5 147C147.299 147 152 151.701 152 157.5Z" fill="white"/>
<path d="M152 157.5C152 163.299 147.299 168 141.5 168C135.701 168 131 163.299 131 157.5C131 151.701 135.701 147 141.5 147C147.299 147 152 151.701 152 157.5Z" fill="white"/>
<path d="M152 157.5C152 163.299 147.299 168 141.5 168C135.701 168 131 163.299 131 157.5C131 151.701 135.701 147 141.5 147C147.299 147 152 151.701 152 157.5Z" fill="white"/>
<path d="M118 200.5C118 204.09 115.09 207 111.5 207C107.91 207 105 204.09 105 200.5C105 196.91 107.91 194 111.5 194C115.09 194 118 196.91 118 200.5Z" fill="white"/>
<path d="M163 225.5C163 232.404 157.404 238 150.5 238C143.596 238 138 232.404 138 225.5C138 218.596 143.596 213 150.5 213C157.404 213 163 218.596 163 225.5Z" fill="white"/>
<path d="M144 187.5C144 191.09 141.09 194 137.5 194C133.91 194 131 191.09 131 187.5C131 183.91 133.91 181 137.5 181C141.09 181 144 183.91 144 187.5Z" fill="white"/>
<path fill-rule="evenodd" clip-rule="evenodd" d="M183 234.785C212.89 236.303 238.738 208.244 240.8 171.964C242.861 135.684 220.357 104.878 190.488 103L189.728 116.379C213.489 117.729 231.424 142.185 229.787 171.003C228.149 199.82 207.56 222.088 183.798 220.737L183 234.785Z" fill="black"/>
<path fill-rule="evenodd" clip-rule="evenodd" d="M178.778 238.576L180.031 216.517L184.025 216.744C204.895 217.93 224.238 198.143 225.793 170.776C227.348 143.408 210.37 121.558 189.501 120.372L185.507 120.145L186.723 98.7554L190.739 99.0079C223.482 101.066 246.937 134.462 244.793 172.191C242.649 209.92 215.563 240.443 182.797 238.78L178.778 238.576ZM194.47 103.427C222.331 107.659 242.768 137.315 240.8 171.964C238.831 206.613 215.166 233.763 187.005 234.812C185.679 234.862 184.344 234.853 183 234.785L183.798 220.737C207.56 222.088 228.149 199.82 229.787 171.003C231.424 142.185 213.489 117.729 189.728 116.378L190.488 103C191.831 103.084 193.159 103.227 194.47 103.427Z" fill="black"/>
</svg>
